<svg width="49" height="26" viewBox="0 0 49 26" fill="none" xmlns="http://www.w3.org/2000/svg">
<path d="M14.3228 0.529036C14.8086 0.529036 15.2197 0.654858 15.556 0.906504C15.8924 1.13879 16.0606 1.42915 16.0606 1.77758C16.0606 2.39702 15.8737 2.90031 15.5 3.28746C15.1263 3.65525 14.5937 3.83914 13.9023 3.83914C12.8186 3.83914 11.9964 3.84882 11.4358 3.86818C11.3984 4.10046 11.2302 5.14576 10.9313 7.00407C10.5949 9.0753 10.3894 10.3432 10.3146 10.8078L9.72603 14.6115C9.31494 17.457 8.98794 19.838 8.74502 21.7544C9.13742 21.735 9.66997 21.7253 10.3427 21.7253C11.333 21.7253 12.0057 21.8608 12.3607 22.1318C12.7158 22.4028 12.8933 22.8093 12.8933 23.3513C12.8933 23.8546 12.6971 24.2805 12.3047 24.6289C11.931 24.9774 11.3984 25.1516 10.707 25.1516C10.2399 25.1516 9.5018 25.1322 8.49276 25.0935C7.55846 25.0548 6.94183 25.0354 6.64285 25.0354C5.46564 25.0354 4.17631 25.1419 2.77486 25.3548C2.15823 25.4516 1.71911 25.5 1.4575 25.5C1.04641 25.5 0.700723 25.3839 0.420434 25.1516C0.140145 24.9193 0 24.5805 0 24.1353C0 23.4384 0.298975 22.8964 0.896925 22.5093C1.49488 22.1221 2.33574 21.9189 3.41953 21.8995L4.73689 21.8705L4.82097 21.2317C5.26943 18.1345 5.59644 15.9472 5.80198 14.6696L6.41862 10.8659C6.79234 8.6204 7.12869 6.3072 7.42766 3.92625L5.07323 3.95528C4.40054 3.95528 3.93339 3.84882 3.67179 3.63589C3.42887 3.4036 3.30741 3.0842 3.30741 2.6777C3.30741 1.3614 4.22302 0.65486 6.05424 0.558073C6.9138 0.519358 7.96021 0.5 9.19348 0.5L14.3228 0.529036Z" fill="#68696B"/>
<path d="M17.6895 25.1225C16.9795 25.1225 16.4749 24.7354 16.176 23.9611C15.8957 23.1868 15.7555 21.9479 15.7555 20.2445C15.7555 17.728 16.1012 15.3374 16.7926 13.0726C16.9608 12.5112 17.2317 12.1047 17.6054 11.8531C17.9978 11.5821 18.5397 11.4466 19.2311 11.4466C19.6048 11.4466 19.8664 11.495 20.0159 11.5918C20.1654 11.6885 20.2402 11.8724 20.2402 12.1434C20.2402 12.4532 20.1 13.15 19.8197 14.234C19.6329 15.0083 19.4834 15.6858 19.3713 16.2666C19.2591 16.8473 19.1657 17.5635 19.091 18.4152C19.7076 16.7505 20.399 15.3955 21.1651 14.3502C21.9312 13.3049 22.6787 12.5596 23.4074 12.1144C24.1549 11.6692 24.8369 11.4466 25.4535 11.4466C26.6681 11.4466 27.2754 12.0757 27.2754 13.3339C27.2754 14.0888 27.0699 15.4535 26.6588 17.428C26.3037 19.1121 26.1262 20.2251 26.1262 20.7671C26.1262 21.5414 26.3972 21.9286 26.9391 21.9286C27.3128 21.9286 27.7519 21.6963 28.2564 21.2317C28.7796 20.7478 29.471 19.9735 30.3306 18.9088C30.5548 18.6378 30.8071 18.5023 31.0873 18.5023C31.3303 18.5023 31.5171 18.6185 31.6479 18.8508C31.7974 19.083 31.8722 19.4024 31.8722 19.8089C31.8722 20.5832 31.6946 21.1833 31.3396 21.6092C30.5361 22.6351 29.6672 23.4772 28.7329 24.1353C27.8173 24.7935 26.7709 25.1225 25.5937 25.1225C24.6407 25.1225 23.9213 24.8419 23.4354 24.2805C22.9496 23.6998 22.7067 22.8674 22.7067 21.7834C22.7067 21.2414 22.8375 20.2735 23.0991 18.8798C23.342 17.6603 23.4635 16.8182 23.4635 16.3537C23.4635 16.0439 23.3607 15.8891 23.1552 15.8891C22.9122 15.8891 22.5666 16.2182 22.1181 16.8763C21.6883 17.5151 21.2399 18.3668 20.7727 19.4315C20.3242 20.4961 19.9599 21.6189 19.6796 22.7997C19.474 23.7094 19.2311 24.3289 18.9508 24.658C18.6892 24.9677 18.2688 25.1225 17.6895 25.1225Z" fill="#68696B"/>
<path d="M43.7525 16.1504C43.8085 16.131 43.902 16.1214 44.0328 16.1214C44.313 16.1214 44.5279 16.2182 44.6774 16.4117C44.8269 16.6053 44.9017 16.8666 44.9017 17.1957C44.9017 17.7958 44.7895 18.27 44.5653 18.6185C44.3411 18.9475 44.0047 19.1895 43.5563 19.3444C42.6967 19.6347 41.7811 19.7799 40.8094 19.7799C39.9872 19.7799 39.2118 19.6638 38.483 19.4315C37.9411 20.3413 37.3432 21.2801 36.6892 22.248C35.9417 23.3513 35.2971 24.1063 34.7552 24.5128C34.2133 24.9193 33.5967 25.1225 32.9053 25.1225C32.1392 25.1225 31.5319 24.8128 31.0834 24.1934C30.6536 23.5739 30.3827 22.5964 30.2706 21.2607C30.0463 18.5507 29.9342 16.1794 29.9342 14.1469V13.1307C29.9529 12.4919 30.1211 12.0467 30.4387 11.795C30.7564 11.5434 31.2329 11.4175 31.8682 11.4175C32.354 11.4175 32.7091 11.5337 32.9333 11.766C33.1762 11.9789 33.2977 12.3467 33.2977 12.8693C33.2977 15.0954 33.4285 17.9894 33.6901 21.5511C34.8112 19.8283 35.6521 18.4539 36.2127 17.428C35.9324 16.8666 35.7923 16.1988 35.7923 15.4245C35.7923 14.7664 35.9324 14.1276 36.2127 13.5081C36.493 12.8887 36.876 12.3854 37.3619 11.9983C37.8477 11.6111 38.3989 11.4175 39.0156 11.4175C39.5575 11.4175 39.9966 11.6208 40.3329 12.0273C40.6693 12.4144 40.8375 12.9855 40.8375 13.7404C40.8375 14.6115 40.6132 15.6084 40.1648 16.7311C40.8748 16.6924 41.8185 16.5472 42.9957 16.2956L43.7525 16.1504Z" fill="#68696B"/>
<path d="M46.3373 9.5302C45.5524 9.5302 44.9638 9.3463 44.5714 8.97851C44.179 8.59137 43.9828 8.05904 43.9828 7.38153C43.9828 6.70403 44.2351 6.14266 44.7396 5.69744C45.2628 5.23287 45.9075 5.00058 46.6736 5.00058C47.365 5.00058 47.9256 5.1748 48.3553 5.52323C48.7851 5.87166 49 6.36527 49 7.00407C49 7.77836 48.7571 8.39779 48.2712 8.86237C47.7854 9.30759 47.1408 9.5302 46.3373 9.5302ZM43.6465 25.1225C43.0485 25.1225 42.6374 24.9967 42.4132 24.7451C42.189 24.4934 42.0769 24.0966 42.0769 23.5546C42.0769 23.3997 42.0955 23.1287 42.1329 22.7416C42.4319 19.1992 42.9271 15.9762 43.6185 13.0726C43.7679 12.4725 44.0109 12.0563 44.3472 11.824C44.7022 11.5724 45.2628 11.4466 46.0289 11.4466C46.8324 11.4466 47.2342 11.7853 47.2342 12.4628C47.2342 12.5596 47.2155 12.7435 47.1781 13.0145C46.3373 17.157 45.8327 20.6316 45.6646 23.4384C45.6272 24.0579 45.4497 24.4934 45.132 24.7451C44.8144 24.9967 44.3192 25.1225 43.6465 25.1225Z" fill="#68696B"/>
</svg>
