<svg width="16" height="16" viewBox="0 0 16 16" fill="none" xmlns="http://www.w3.org/2000/svg">
<path d="M3.29698 14.0864C3.03031 14.5519 2.43395 14.707 1.97334 14.4404C1.50789 14.1737 1.35273 13.5773 1.6194 13.1167L2.31273 11.9191C3.09334 11.6816 3.73334 11.8658 4.23273 12.4719L3.29698 14.0864ZM10.0315 11.4731H1.21213C0.678795 11.4731 0.242432 11.0367 0.242432 10.5034C0.242432 9.97005 0.678795 9.53368 1.21213 9.53368H3.68486L6.85576 4.0452L5.86183 2.32884C5.59516 1.86338 5.75516 1.27187 6.21576 1.0052C6.68122 0.738533 7.27273 0.898533 7.5394 1.35914L7.97092 2.10581L8.40243 1.35914C8.6691 0.893685 9.26546 0.738533 9.72607 1.0052C10.1915 1.27187 10.3467 1.86823 10.08 2.32884L5.92001 9.53368H8.93092C9.91031 9.53368 10.4582 10.6828 10.0315 11.4731ZM14.7879 11.4731H13.3818L14.3321 13.1167C14.5988 13.5822 14.4388 14.1737 13.9782 14.4404C13.5127 14.707 12.9212 14.547 12.6546 14.0864C11.0594 11.3276 9.86667 9.25247 9.06667 7.8755C8.25698 6.46944 8.83395 5.06338 9.41092 4.58823C10.0461 5.68884 10.9964 7.33732 12.2667 9.53368H14.7879C15.3212 9.53368 15.7576 9.97005 15.7576 10.5034C15.7576 11.0416 15.3212 11.4731 14.7879 11.4731Z" fill="#131517" fill-opacity="0.64"/>
</svg>
