<svg width="17" height="17" viewBox="0 0 17 17" fill="none" xmlns="http://www.w3.org/2000/svg">
<g clip-path="url(#clip0_317_39)">
<path d="M16.1504 8.58156C16.1504 4.16328 12.5687 0.581561 8.15039 0.581561C3.73211 0.581561 0.150391 4.16328 0.150391 8.58156C0.150391 12.5746 3.07588 15.8842 6.90039 16.4844V10.8941H4.86914V8.58156H6.90039V6.81906C6.90039 4.81406 8.09473 3.70656 9.92211 3.70656C10.7974 3.70656 11.7129 3.86281 11.7129 3.86281V5.83156H10.7041C9.71031 5.83156 9.40039 6.44823 9.40039 7.08089V8.58156H11.6191L11.2645 10.8941H9.40039V16.4844C13.2249 15.8842 16.1504 12.5746 16.1504 8.58156Z" fill="#100F0D"/>
<path d="M11.2645 10.894L11.6191 8.58154H9.40039V7.08087C9.40039 6.44821 9.71031 5.83154 10.7041 5.83154H11.7129V3.86279C11.7129 3.86279 10.7974 3.70654 9.92211 3.70654C8.09473 3.70654 6.90039 4.81404 6.90039 6.81904V8.58154H4.86914V10.894H6.90039V16.4844C7.30769 16.5483 7.72514 16.5815 8.15039 16.5815C8.57564 16.5815 8.99309 16.5483 9.40039 16.4844V10.894H11.2645Z" fill="white"/>
</g>
<defs>
<clipPath id="clip0_317_39">
<rect width="16" height="16" fill="white" transform="translate(0.150391 0.581543)"/>
</clipPath>
</defs>
</svg>
