<svg width="16" height="16" viewBox="0 0 16 16" fill="none" xmlns="http://www.w3.org/2000/svg">
<g clip-path="url(#clip0_23_6361)">
<path d="M13.38 3.80156C13.38 4.11982 13.2536 4.42505 13.0285 4.65009C12.8035 4.87513 12.4982 5.00156 12.18 5.00156C11.8617 5.00156 11.5565 4.87513 11.3315 4.65009C11.1064 4.42505 10.98 4.11982 10.98 3.80156C10.98 3.4833 11.1064 3.17808 11.3315 2.95303C11.5565 2.72799 11.8617 2.60156 12.18 2.60156C12.4982 2.60156 12.8035 2.72799 13.0285 2.95303C13.2536 3.17808 13.38 3.4833 13.38 3.80156Z" fill="#131517" fill-opacity="0.64"/>
<path fill-rule="evenodd" clip-rule="evenodd" d="M8 12C9.06087 12 10.0783 11.5786 10.8284 10.8284C11.5786 10.0783 12 9.06087 12 8C12 6.93913 11.5786 5.92172 10.8284 5.17157C10.0783 4.42143 9.06087 4 8 4C6.93913 4 5.92172 4.42143 5.17157 5.17157C4.42143 5.92172 4 6.93913 4 8C4 9.06087 4.42143 10.0783 5.17157 10.8284C5.92172 11.5786 6.93913 12 8 12ZM8 10.4C8.63652 10.4 9.24697 10.1471 9.69706 9.69706C10.1471 9.24697 10.4 8.63652 10.4 8C10.4 7.36348 10.1471 6.75303 9.69706 6.30294C9.24697 5.85286 8.63652 5.6 8 5.6C7.36348 5.6 6.75303 5.85286 6.30294 6.30294C5.85286 6.75303 5.6 7.36348 5.6 8C5.6 8.63652 5.85286 9.24697 6.30294 9.69706C6.75303 10.1471 7.36348 10.4 8 10.4Z" fill="#131517" fill-opacity="0.64"/>
<path fill-rule="evenodd" clip-rule="evenodd" d="M0 7.68C0 4.992 0 3.648 0.523 2.62C0.983561 1.7174 1.71796 0.9837 2.621 0.524C3.648 0 4.99 0 7.68 0H8.32C11.008 0 12.352 0 13.38 0.523C14.283 0.983391 15.017 1.71781 15.477 2.621C16 3.648 16 4.99 16 7.68V8.32C16 11.008 16 12.352 15.477 13.38C15.0166 14.283 14.2822 15.017 13.379 15.477C12.352 16 11.01 16 8.32 16H7.68C4.992 16 3.648 16 2.62 15.477C1.71702 15.0166 0.982961 14.2822 0.523 13.379C0 12.352 0 11.01 0 8.32V7.68ZM7.68 1.6H8.32C9.69 1.6 10.622 1.601 11.342 1.66C12.044 1.717 12.402 1.821 12.652 1.949C13.2546 2.25541 13.7447 2.74481 14.052 3.347C14.179 3.597 14.282 3.957 14.34 4.657C14.399 5.377 14.4 6.309 14.4 7.68V8.32C14.4 9.69 14.399 10.622 14.34 11.342C14.283 12.044 14.179 12.402 14.051 12.652C13.7446 13.2546 13.2552 13.7447 12.653 14.052C12.403 14.179 12.043 14.282 11.343 14.34C10.623 14.399 9.691 14.4 8.32 14.4H7.68C6.31 14.4 5.378 14.399 4.658 14.34C3.956 14.283 3.598 14.179 3.348 14.051C2.74537 13.7446 2.25528 13.2552 1.948 12.653C1.821 12.403 1.718 12.043 1.66 11.343C1.601 10.623 1.6 9.691 1.6 8.32V7.68C1.6 6.31 1.601 5.378 1.66 4.658C1.717 3.956 1.821 3.598 1.949 3.348C2.25541 2.74537 2.74481 2.25528 3.347 1.948C3.597 1.821 3.957 1.718 4.657 1.66C5.377 1.601 6.309 1.6 7.68 1.6Z" fill="#131517" fill-opacity="0.64"/>
</g>
<defs>
<clipPath id="clip0_23_6361">
<rect width="16" height="16" fill="white"/>
</clipPath>
</defs>
</svg>
