<svg width="16" height="16" viewBox="0 0 16 16" fill="none" xmlns="http://www.w3.org/2000/svg">
<g clip-path="url(#clip0_23_6358)">
<path d="M5.0224 14.8031C3.23543 14.8039 1.48809 14.2765 0 13.2871C1.232 13.3695 3.4048 13.1719 4.756 11.8375C2.7232 11.7415 1.8056 10.1271 1.6864 9.43753C1.8592 9.50633 2.6832 9.58953 3.148 9.39593C0.8088 8.78953 0.4504 6.66553 0.5296 6.01673C0.9688 6.33433 1.7128 6.44473 2.0056 6.41673C-0.1744 4.80313 0.6096 2.37592 0.9952 1.85112C2.5592 4.09352 4.9032 5.35353 7.8032 5.42313C7.74759 5.16956 7.71969 4.91071 7.72 4.65112C7.72 2.74712 9.208 1.20312 11.0424 1.20312C12.0016 1.20312 12.8656 1.62472 13.472 2.29912C14.112 2.14312 15.0768 1.77912 15.548 1.46552C15.3104 2.34793 14.5712 3.08472 14.124 3.35752C14.12 3.34792 14.1272 3.36632 14.124 3.35752C14.516 3.29592 15.58 3.08393 16 2.78953C15.792 3.28553 15.008 4.10952 14.3648 4.57113C14.4848 10.0359 10.444 14.8031 5.0224 14.8031Z" fill="#131517" fill-opacity="0.64"/>
</g>
<defs>
<clipPath id="clip0_23_6358">
<rect width="16" height="16" fill="white"/>
</clipPath>
</defs>
</svg>
